<svg xmlns="http://www.w3.org/2000/svg" version="1.1" xmlns:xlink="http://www.w3.org/1999/xlink" xmlns:svgjs="http://svgjs.dev/svgjs" width="1000" height="313" viewBox="0 0 1000 313"><g transform="matrix(1,0,0,1,-0.6060606060606233,-0.12075256569056592)"><svg viewBox="0 0 396 124" data-background-color="#000000" preserveAspectRatio="xMidYMid meet" height="313" width="1000" xmlns="http://www.w3.org/2000/svg" xmlns:xlink="http://www.w3.org/1999/xlink"><g id="tight-bounds" transform="matrix(1,0,0,1,0.2400000000000091,0.047838077142586144)"><svg viewBox="0 0 395.52 123.90432384571484" height="123.90432384571484" width="395.52"><g><svg viewBox="0 0 590.64732 185.03174761297424" height="123.90432384571484" width="395.52"><g transform="matrix(1,0,0,1,195.12732,0)"><svg viewBox="0 0 395.52 185.03174761297424" height="185.03174761297424" width="395.52"><g id="textblocktransform"><svg viewBox="0 0 395.52 185.03174761297424" height="185.03174761297424" width="395.52" id="textblock"><g><rect width="395.52" height="154.43857660703753" fill="none" stroke-width="9.018103199999999" stroke="#89668d" data-fill-palette-color="none" data-stroke-palette-color="tertiary"></rect><rect width="395.52" height="30.5931710059367" y="154.43857660703753" fill="#89668d" data-fill-palette-color="tertiary"></rect></g><g><svg viewBox="0 0 395.52 154.43857660703753" height="154.43857660703753" width="395.52"><g transform="matrix(1,0,0,1,23.607599999999998,23.607599999999998)"><svg width="348.3048" viewBox="1.8999999999999986 -35.699999999999996 254.35 75.3" height="107.22337660703755" data-palette-color="#7c4e82"><svg></svg><svg></svg><g class="wordmark-text-0" data-fill-palette-color="primary" id="text-0"><path d="M15.95 0.45c-2.633 0-5.233-0.35-7.8-1.05-2.567-0.7-4.65-1.633-6.25-2.8v0l2.85-6.5c1.7 1.067 3.517 1.883 5.45 2.45 1.933 0.567 3.883 0.85 5.85 0.85v0c2 0 3.527-0.277 4.58-0.83 1.047-0.547 1.57-1.32 1.57-2.32v0c0-0.9-0.473-1.633-1.42-2.2-0.953-0.567-2.763-1.133-5.43-1.7v0c-3.3-0.7-5.883-1.533-7.75-2.5-1.867-0.967-3.173-2.1-3.92-3.4-0.753-1.3-1.13-2.9-1.13-4.8v0c0-2.167 0.61-4.11 1.83-5.83 1.213-1.713 2.93-3.063 5.15-4.05 2.213-0.98 4.753-1.47 7.62-1.47v0c2.533 0 4.993 0.357 7.38 1.07 2.38 0.72 4.237 1.647 5.57 2.78v0l-2.8 6.5c-3.2-2.2-6.567-3.3-10.1-3.3v0c-1.7 0-3.067 0.323-4.1 0.97-1.033 0.653-1.55 1.513-1.55 2.58v0c0 0.633 0.183 1.15 0.55 1.55 0.367 0.4 1.05 0.79 2.05 1.17 1 0.387 2.483 0.78 4.45 1.18v0c3.2 0.7 5.717 1.54 7.55 2.52 1.833 0.987 3.133 2.13 3.9 3.43 0.767 1.3 1.15 2.85 1.15 4.65v0c0 3.467-1.333 6.173-4 8.12-2.667 1.953-6.417 2.93-11.25 2.93zM52.9 0h-9.3v-27.8h-10.55v-7.45h30.4v7.45h-10.55zM92.3 0h-25.05v-35.25h25.05v7.1h-16.1v6.7h15.1v7.05h-15.1v7.3h16.1zM122.15 0h-25.05v-35.25h25.05v7.1h-16.1v6.7h15.1v7.05h-15.1v7.3h16.1zM152 0h-25.05v-35.25h25.05v7.1h-16.1v6.7h15.1v7.05h-15.1v7.3h16.1zM181.85 0h-25.05v-35.25h25.05v7.1h-16.1v6.7h15.1v7.05h-15.1v7.3h16.1zM211.7 0h-25.05v-35.25h25.05v7.1h-16.1v6.7h15.1v7.05h-15.1v7.3h16.1z" fill="#7c4e82" fill-rule="nonzero" stroke="none" stroke-width="1" stroke-linecap="butt" stroke-linejoin="miter" stroke-miterlimit="10" stroke-dasharray="" stroke-dashoffset="0" font-family="none" font-weight="none" font-size="none" text-anchor="none" style="mix-blend-mode: normal" data-fill-palette-color="primary" opacity="1"></path><path transform="translate(0,39.15)" d="M15.95 0.45c-2.633 0-5.233-0.35-7.8-1.05-2.567-0.7-4.65-1.633-6.25-2.8v0l2.85-6.5c1.7 1.067 3.517 1.883 5.45 2.45 1.933 0.567 3.883 0.85 5.85 0.85v0c2 0 3.527-0.277 4.58-0.83 1.047-0.547 1.57-1.32 1.57-2.32v0c0-0.9-0.473-1.633-1.42-2.2-0.953-0.567-2.763-1.133-5.43-1.7v0c-3.3-0.7-5.883-1.533-7.75-2.5-1.867-0.967-3.173-2.1-3.92-3.4-0.753-1.3-1.13-2.9-1.13-4.8v0c0-2.167 0.61-4.11 1.83-5.83 1.213-1.713 2.93-3.063 5.15-4.05 2.213-0.98 4.753-1.47 7.62-1.47v0c2.533 0 4.993 0.357 7.38 1.07 2.38 0.72 4.237 1.647 5.57 2.78v0l-2.8 6.5c-3.2-2.2-6.567-3.3-10.1-3.3v0c-1.7 0-3.067 0.323-4.1 0.97-1.033 0.653-1.55 1.513-1.55 2.58v0c0 0.633 0.183 1.15 0.55 1.55 0.367 0.4 1.05 0.79 2.05 1.17 1 0.387 2.483 0.78 4.45 1.18v0c3.2 0.7 5.717 1.54 7.55 2.52 1.833 0.987 3.133 2.13 3.9 3.43 0.767 1.3 1.15 2.85 1.15 4.65v0c0 3.467-1.333 6.173-4 8.12-2.667 1.953-6.417 2.93-11.25 2.93zM71.75 0h-9.1l-3.15-7.3h-15.6l-3.15 7.3h-9.25l16.45-35.25h7.3zM51.7-25.5l-4.85 11.3h9.7zM96.7-15.1v-20.15h8.6v35.25h-6.8l-16.1-20.15v20.15h-8.55v-35.25h6.7zM111.7 0v-35.25h14.35c3.9 0 7.26 0.7 10.08 2.1 2.813 1.4 4.97 3.423 6.47 6.07 1.5 2.653 2.25 5.797 2.25 9.43v0c0 3.667-0.74 6.823-2.22 9.47-1.487 2.653-3.637 4.68-6.45 6.08-2.82 1.4-6.197 2.1-10.13 2.1v0zM120.9-7.4h4.5c3.467 0 6.05-0.85 7.75-2.55 1.7-1.7 2.55-4.267 2.55-7.7v0c0-3.433-0.85-5.993-2.55-7.68-1.7-1.68-4.283-2.52-7.75-2.52v0h-4.5zM174-18.3c2.067 0.633 3.65 1.69 4.75 3.17 1.1 1.487 1.65 3.313 1.65 5.48v0c0 1.933-0.507 3.623-1.52 5.07-1.02 1.453-2.47 2.58-4.35 3.38-1.887 0.8-4.097 1.2-6.63 1.2v0h-17.55v-35.25h17.05c3.7 0 6.643 0.827 8.83 2.48 2.18 1.647 3.27 3.87 3.27 6.67v0c0 1.8-0.483 3.39-1.45 4.77-0.967 1.387-2.317 2.397-4.05 3.03zM159.3-28.3v6.9h6.55c1.733 0 3-0.267 3.8-0.8 0.8-0.533 1.2-1.383 1.2-2.55v0c0-1.233-0.4-2.133-1.2-2.7-0.8-0.567-2.067-0.85-3.8-0.85v0zM166.75-6.95c1.833 0 3.143-0.293 3.93-0.88 0.78-0.58 1.17-1.537 1.17-2.87v0c0-1.333-0.39-2.293-1.17-2.88-0.787-0.58-2.097-0.87-3.93-0.87v0h-7.45v7.5zM201.85 0.45c-3.6 0-6.727-0.743-9.38-2.23-2.647-1.48-4.687-3.58-6.12-6.3-1.433-2.713-2.15-5.903-2.15-9.57v0c0-3.667 0.717-6.86 2.15-9.58 1.433-2.713 3.473-4.803 6.12-6.27 2.653-1.467 5.78-2.2 9.38-2.2v0c3.6 0 6.727 0.733 9.38 2.2 2.647 1.467 4.68 3.557 6.1 6.27 1.413 2.72 2.12 5.913 2.12 9.58v0c0 3.667-0.717 6.857-2.15 9.57-1.433 2.72-3.473 4.82-6.12 6.3-2.653 1.487-5.763 2.23-9.33 2.23zM201.85-6.6c2.667 0 4.75-0.943 6.25-2.83 1.5-1.88 2.25-4.62 2.25-8.22v0c0-3.6-0.757-6.333-2.27-8.2-1.52-1.867-3.597-2.8-6.23-2.8v0c-2.667 0-4.75 0.923-6.25 2.77-1.5 1.853-2.25 4.597-2.25 8.23v0c0 3.633 0.75 6.383 2.25 8.25 1.5 1.867 3.583 2.8 6.25 2.8zM256-35.25l-13.25 17.45 13.5 17.8h-10.75l-7.95-11.1-8 11.1h-10.65l13.45-17.8-13.2-17.45h10.7l7.7 10.8 7.8-10.8z" fill="#7c4e82" fill-rule="nonzero" stroke="none" stroke-width="1" stroke-linecap="butt" stroke-linejoin="miter" stroke-miterlimit="10" stroke-dasharray="" stroke-dashoffset="0" font-family="none" font-weight="none" font-size="none" text-anchor="none" style="mix-blend-mode: normal" data-fill-palette-color="primary" opacity="1"></path></g></svg></g></svg></g></svg></g></svg></g><g transform="matrix(1,0,0,1,0,0.8541138064871205)"><svg viewBox="0 0 183.32352 183.32352" height="183.32352" width="183.32352"><g><svg xmlns="http://www.w3.org/2000/svg" xmlns:xlink="http://www.w3.org/1999/xlink" version="1.0" x="0" y="0" viewBox="10 10 80 80" enable-background="new 0 0 100 100" xml:space="preserve" height="183.32352" width="183.32352" class="icon-icon-0" data-fill-palette-color="accent" id="icon-0"><path d="M80 50h-9.817c-0.629-1.237-1.364-2.386-2.152-3.489l-3.77 6.533c1.514 3.014 2.402 6.526 2.406 10.296l6.666-0.007c-0.003-2.308-0.286-4.531-0.768-6.666h3.313L82.546 70H17.455l6.667-13.333h3.311c-0.482 2.135-0.765 4.358-0.765 6.666h6.667c0-9.59 5.657-17.617 13.177-19.551l4.083-7.07c-0.195-0.006-0.388-0.045-0.586-0.045-8.64 0-16.159 5.371-20.196 13.333H20L10 70v20h80V70L80 50zM83.333 83.333H16.667v-6.666h66.667V83.333z" fill="#5e4666" data-fill-palette-color="accent"></path><polygon points="68.457,19.108 62.683,15.774 66.016,10 83.333,20 80,25.774 74.229,22.441 54.47,56.667 46.771,56.667 " fill="#5e4666" data-fill-palette-color="accent"></polygon></svg></g></svg></g></svg></g><defs></defs></svg><rect width="395.52" height="123.90432384571484" fill="none" stroke="none" visibility="hidden"></rect></g></svg></g></svg>