<svg xmlns="http://www.w3.org/2000/svg" version="1.1" xmlns:xlink="http://www.w3.org/1999/xlink" xmlns:svgjs="http://svgjs.dev/svgjs" width="1000" height="184" viewBox="0 0 1000 184"><g transform="matrix(1,0,0,1,-0.6060606060606233,0.4534761462583532)"><svg viewBox="0 0 396 73" data-background-color="#000000" preserveAspectRatio="xMidYMid meet" height="184" width="1000" xmlns="http://www.w3.org/2000/svg" xmlns:xlink="http://www.w3.org/1999/xlink"><g id="tight-bounds" transform="matrix(1,0,0,1,0.2400000000000091,-0.17991173193945542)"><svg viewBox="0 0 395.52 73.3598234638789" height="73.3598234638789" width="395.52"><g><svg viewBox="0 0 500.07642505105434 92.75262505105434" height="73.3598234638789" width="395.52"><g transform="matrix(1,0,0,1,104.55642505105433,1.6331262973292269)"><svg viewBox="0 0 395.52 89.48637245639588" height="89.48637245639588" width="395.52"><g id="textblocktransform"><svg viewBox="0 0 395.52 89.48637245639588" height="89.48637245639588" width="395.52" id="textblock"><g><rect width="395.52" height="73.34077012138188" fill="none" stroke-width="9.018103199999999" stroke="#89668d" data-fill-palette-color="none" data-stroke-palette-color="tertiary"></rect><rect width="395.52" height="16.145602335014008" y="73.34077012138188" fill="#89668d" data-fill-palette-color="tertiary"></rect></g><g><svg viewBox="0 0 395.52 73.34077012138188" height="73.34077012138188" width="395.52"><g transform="matrix(1,0,0,1,23.607599999999998,23.607599999999998)"><svg width="348.3048" viewBox="1.9 -35.7 481.92 36.150000000000006" height="26.125570121381887" data-palette-color="#7c4e82"><path d="M15.95 0.45Q12 0.45 8.15-0.6 4.3-1.65 1.9-3.4L1.9-3.4 4.75-9.9Q7.3-8.3 10.2-7.45 13.1-6.6 16.05-6.6L16.05-6.6Q19.05-6.6 20.63-7.43 22.2-8.25 22.2-9.75L22.2-9.75Q22.2-11.1 20.78-11.95 19.35-12.8 15.35-13.65L15.35-13.65Q10.4-14.7 7.6-16.15 4.8-17.6 3.68-19.55 2.55-21.5 2.55-24.35L2.55-24.35Q2.55-27.6 4.38-30.18 6.2-32.75 9.53-34.23 12.85-35.7 17.15-35.7L17.15-35.7Q20.95-35.7 24.53-34.63 28.1-33.55 30.1-31.85L30.1-31.85 27.3-25.35Q22.5-28.65 17.2-28.65L17.2-28.65Q14.65-28.65 13.1-27.68 11.55-26.7 11.55-25.1L11.55-25.1Q11.55-24.15 12.1-23.55 12.65-22.95 14.15-22.38 15.65-21.8 18.6-21.2L18.6-21.2Q23.4-20.15 26.15-18.68 28.9-17.2 30.05-15.25 31.2-13.3 31.2-10.6L31.2-10.6Q31.2-5.4 27.2-2.48 23.2 0.45 15.95 0.45L15.95 0.45ZM52.9 0L43.6 0 43.6-27.8 33.05-27.8 33.05-35.25 63.45-35.25 63.45-27.8 52.9-27.8 52.9 0ZM92.3 0L67.25 0 67.25-35.25 92.3-35.25 92.3-28.15 76.2-28.15 76.2-21.45 91.3-21.45 91.3-14.4 76.2-14.4 76.2-7.1 92.3-7.1 92.3 0ZM122.14 0L97.09 0 97.09-35.25 122.14-35.25 122.14-28.15 106.04-28.15 106.04-21.45 121.14-21.45 121.14-14.4 106.04-14.4 106.04-7.1 122.14-7.1 122.14 0ZM151.99 0L126.94 0 126.94-35.25 151.99-35.25 151.99-28.15 135.89-28.15 135.89-21.45 150.99-21.45 150.99-14.4 135.89-14.4 135.89-7.1 151.99-7.1 151.99 0ZM181.84 0L156.79 0 156.79-35.25 181.84-35.25 181.84-28.15 165.74-28.15 165.74-21.45 180.84-21.45 180.84-14.4 165.74-14.4 165.74-7.1 181.84-7.1 181.84 0ZM211.69 0L186.63 0 186.63-35.25 211.69-35.25 211.69-28.15 195.59-28.15 195.59-21.45 210.69-21.45 210.69-14.4 195.59-14.4 195.59-7.1 211.69-7.1 211.69 0ZM243.53 0.45Q239.58 0.45 235.73-0.6 231.88-1.65 229.48-3.4L229.48-3.4 232.33-9.9Q234.88-8.3 237.78-7.45 240.68-6.6 243.63-6.6L243.63-6.6Q246.63-6.6 248.21-7.43 249.78-8.25 249.78-9.75L249.78-9.75Q249.78-11.1 248.36-11.95 246.93-12.8 242.93-13.65L242.93-13.65Q237.98-14.7 235.18-16.15 232.38-17.6 231.26-19.55 230.13-21.5 230.13-24.35L230.13-24.35Q230.13-27.6 231.96-30.18 233.78-32.75 237.11-34.23 240.43-35.7 244.73-35.7L244.73-35.7Q248.53-35.7 252.11-34.63 255.68-33.55 257.68-31.85L257.68-31.85 254.88-25.35Q250.08-28.65 244.78-28.65L244.78-28.65Q242.23-28.65 240.68-27.68 239.13-26.7 239.13-25.1L239.13-25.1Q239.13-24.15 239.68-23.55 240.23-22.95 241.73-22.38 243.23-21.8 246.18-21.2L246.18-21.2Q250.98-20.15 253.73-18.68 256.48-17.2 257.63-15.25 258.78-13.3 258.78-10.6L258.78-10.6Q258.78-5.4 254.78-2.48 250.78 0.45 243.53 0.45L243.53 0.45ZM299.33 0L290.23 0 287.08-7.3 271.48-7.3 268.33 0 259.08 0 275.53-35.25 282.83-35.25 299.33 0ZM279.28-25.5L274.43-14.2 284.13-14.2 279.28-25.5ZM324.28-15.1L324.28-35.25 332.88-35.25 332.88 0 326.08 0 309.98-20.15 309.98 0 301.43 0 301.43-35.25 308.13-35.25 324.28-15.1ZM339.27 0L339.27-35.25 353.62-35.25Q359.47-35.25 363.7-33.15 367.92-31.05 370.17-27.08 372.42-23.1 372.42-17.65L372.42-17.65Q372.42-12.15 370.2-8.18 367.97-4.2 363.75-2.1 359.52 0 353.62 0L353.62 0 339.27 0ZM348.47-7.4L352.97-7.4Q358.17-7.4 360.72-9.95 363.27-12.5 363.27-17.65L363.27-17.65Q363.27-22.8 360.72-25.33 358.17-27.85 352.97-27.85L352.97-27.85 348.47-27.85 348.47-7.4ZM401.57-18.3Q404.67-17.35 406.32-15.13 407.97-12.9 407.97-9.65L407.97-9.65Q407.97-6.75 406.45-4.58 404.92-2.4 402.1-1.2 399.27 0 395.47 0L395.47 0 377.92 0 377.92-35.25 394.97-35.25Q400.52-35.25 403.8-32.77 407.07-30.3 407.07-26.1L407.07-26.1Q407.07-23.4 405.62-21.33 404.17-19.25 401.57-18.3L401.57-18.3ZM386.87-28.3L386.87-21.4 393.42-21.4Q396.02-21.4 397.22-22.2 398.42-23 398.42-24.75L398.42-24.75Q398.42-26.6 397.22-27.45 396.02-28.3 393.42-28.3L393.42-28.3 386.87-28.3ZM394.32-6.95Q397.07-6.95 398.25-7.83 399.42-8.7 399.42-10.7L399.42-10.7Q399.42-12.7 398.25-13.58 397.07-14.45 394.32-14.45L394.32-14.45 386.87-14.45 386.87-6.95 394.32-6.95ZM429.42 0.45Q424.02 0.45 420.04-1.78 416.07-4 413.92-8.08 411.77-12.15 411.77-17.65L411.77-17.65Q411.77-23.15 413.92-27.23 416.07-31.3 420.04-33.5 424.02-35.7 429.42-35.7L429.42-35.7Q434.82-35.7 438.79-33.5 442.77-31.3 444.89-27.23 447.02-23.15 447.02-17.65L447.02-17.65Q447.02-12.15 444.87-8.08 442.72-4 438.74-1.78 434.77 0.45 429.42 0.45L429.42 0.45ZM429.42-6.6Q433.42-6.6 435.67-9.43 437.92-12.25 437.92-17.65L437.92-17.65Q437.92-23.05 435.64-25.85 433.37-28.65 429.42-28.65L429.42-28.65Q425.42-28.65 423.17-25.88 420.92-23.1 420.92-17.65L420.92-17.65Q420.92-12.2 423.17-9.4 425.42-6.6 429.42-6.6L429.42-6.6ZM483.57-35.25L470.32-17.8 483.82 0 473.07 0 465.12-11.1 457.12 0 446.47 0 459.92-17.8 446.72-35.25 457.42-35.25 465.12-24.45 472.92-35.25 483.57-35.25Z" opacity="1" transform="matrix(1,0,0,1,0,0)" fill="#7c4e82" class="wordmark-text-0" data-fill-palette-color="primary" id="text-0"></path></svg></g></svg></g></svg></g></svg></g><g><svg viewBox="0 0 92.75262505105434 92.75262505105434" height="92.75262505105434" width="92.75262505105434"><g><svg xmlns="http://www.w3.org/2000/svg" xmlns:xlink="http://www.w3.org/1999/xlink" version="1.0" x="0" y="0" viewBox="10 10 80 80" enable-background="new 0 0 100 100" xml:space="preserve" height="92.75262505105434" width="92.75262505105434" class="icon-icon-0" data-fill-palette-color="accent" id="icon-0"><path d="M80 50h-9.817c-0.629-1.237-1.364-2.386-2.152-3.489l-3.77 6.533c1.514 3.014 2.402 6.526 2.406 10.296l6.666-0.007c-0.003-2.308-0.286-4.531-0.768-6.666h3.313L82.546 70H17.455l6.667-13.333h3.311c-0.482 2.135-0.765 4.358-0.765 6.666h6.667c0-9.59 5.657-17.617 13.177-19.551l4.083-7.07c-0.195-0.006-0.388-0.045-0.586-0.045-8.64 0-16.159 5.371-20.196 13.333H20L10 70v20h80V70L80 50zM83.333 83.333H16.667v-6.666h66.667V83.333z" fill="#5e4666" data-fill-palette-color="accent"></path><polygon points="68.457,19.108 62.683,15.774 66.016,10 83.333,20 80,25.774 74.229,22.441 54.47,56.667 46.771,56.667 " fill="#5e4666" data-fill-palette-color="accent"></polygon></svg></g></svg></g></svg></g><defs></defs></svg><rect width="395.52" height="73.3598234638789" fill="none" stroke="none" visibility="hidden"></rect></g></svg></g></svg>